<svg width="20" height="20" viewBox="0 0 20 20" fill="none" xmlns="http://www.w3.org/2000/svg">
<path d="M19.5694 17.0239C19.9034 17.395 19.9034 17.9517 19.5323 18.2856L18.4932 19.3247C18.1593 19.6958 17.6026 19.6958 17.2315 19.3247L13.5577 15.6509C13.3722 15.4653 13.2979 15.2427 13.2979 15.02V14.3892C11.962 15.4282 10.3292 16.022 8.54794 16.022C4.28036 16.022 0.829187 12.5708 0.829187 8.30322C0.829187 4.07275 4.28036 0.584473 8.54794 0.584473C12.7784 0.584473 16.2667 4.07275 16.2667 8.30322C16.2667 10.1216 15.6358 11.7544 14.6339 13.0532H15.2276C15.4503 13.0532 15.6729 13.1646 15.8585 13.313L19.5694 17.0239ZM8.54794 13.0532C11.1456 13.0532 13.2979 10.938 13.2979 8.30322C13.2979 5.70557 11.1456 3.55322 8.54794 3.55322C5.91317 3.55322 3.79794 5.70557 3.79794 8.30322C3.79794 10.938 5.91317 13.0532 8.54794 13.0532Z" fill="white"/>
</svg>
