<svg width="46" height="46" viewBox="0 0 46 46" fill="none" xmlns="http://www.w3.org/2000/svg">
<rect width="45" height="45" transform="translate(0.5 0.189453)" fill="#FFCB00"/>
<path d="M23.1575 12.002C28.5091 12.002 32.845 16.3379 32.845 21.6895C32.845 27.041 28.5091 31.377 23.1575 31.377C17.8059 31.377 13.47 27.041 13.47 21.6895C13.47 16.3379 17.8059 12.002 23.1575 12.002ZM27.8841 18.6426C28.0403 18.0176 27.6497 17.7441 27.22 17.9004L17.8841 21.4941C17.2591 21.7285 17.2591 22.1191 17.7669 22.2754L20.1497 23.0176L25.6966 19.502C25.97 19.3457 26.2044 19.4629 26.0091 19.6191L21.5169 23.6816L21.3606 26.1426C21.595 26.1426 21.7122 26.0254 21.8294 25.9082L23.0012 24.7754L25.4231 26.5723C25.8919 26.8066 26.2044 26.6895 26.3216 26.1426L27.8841 18.6426Z" fill="black"/>
</svg>
