<svg width="46" height="46" viewBox="0 0 46 46" fill="none" xmlns="http://www.w3.org/2000/svg">
<rect width="45" height="45" transform="translate(0.5 0.189453)" fill="#FFCB00"/>
<path d="M33.1906 16.2988C32.8781 17.627 30.0656 21.6113 30.0656 21.6113C29.8313 22.002 29.7141 22.1973 30.0656 22.627C30.2219 22.8223 33.1516 25.6348 33.5813 26.9629C33.7766 27.627 33.4641 27.9395 32.8 27.9395H30.4953C29.6359 27.9395 29.3625 27.2754 27.8 25.7129C26.4328 24.3848 25.8469 24.1895 25.4953 24.1895C24.7922 24.1895 24.9094 24.4629 24.9094 27.0801C24.9094 27.627 24.7141 27.9395 23.2688 27.9395C20.8469 27.9395 18.1516 26.4941 16.2375 23.7598C13.3859 19.7363 12.6047 16.7285 12.6047 16.1035C12.6047 15.752 12.7609 15.4395 13.3859 15.4395H15.6906C16.2766 15.4395 16.5109 15.7129 16.7453 16.3379C17.8781 19.6191 19.7531 22.5098 20.5344 22.5098C20.8469 22.5098 20.9641 22.3535 20.9641 21.6113V18.2129C20.8859 16.6504 20.0656 16.5332 20.0656 15.9863C20.0656 15.7129 20.2609 15.4395 20.6516 15.4395H24.2453C24.7531 15.4395 24.9094 15.7129 24.9094 16.2988V20.8691C24.9094 21.3379 25.1438 21.5332 25.2609 21.5332C25.5734 21.5332 25.8078 21.3379 26.3547 20.8301C27.9953 18.9551 29.1672 16.1035 29.1672 16.1035C29.3234 15.752 29.5969 15.4395 30.1828 15.4395H32.4875C33.1906 15.4395 33.3078 15.8301 33.1906 16.2988Z" fill="black"/>
</svg>
