<svg width="46" height="46" viewBox="0 0 46 46" fill="none" xmlns="http://www.w3.org/2000/svg">
<rect width="45" height="45" transform="translate(0.5 0.189453)" fill="#FFCB00"/>
<path d="M33.3625 16.5723C33.8313 18.2129 33.8313 21.7285 33.8313 21.7285C33.8313 21.7285 33.8313 25.2051 33.3625 26.8848C33.1281 27.8223 32.3859 28.5254 31.4875 28.7598C29.8078 29.1895 23.1672 29.1895 23.1672 29.1895C23.1672 29.1895 16.4875 29.1895 14.8078 28.7598C13.9094 28.5254 13.1672 27.8223 12.9328 26.8848C12.4641 25.2051 12.4641 21.7285 12.4641 21.7285C12.4641 21.7285 12.4641 18.2129 12.9328 16.5723C13.1672 15.6348 13.9094 14.8926 14.8078 14.6582C16.4875 14.1895 23.1672 14.1895 23.1672 14.1895C23.1672 14.1895 29.8078 14.1895 31.4875 14.6582C32.3859 14.8926 33.1281 15.6348 33.3625 16.5723ZM20.9797 24.8926L26.5266 21.7285L20.9797 18.5645V24.8926Z" fill="black"/>
</svg>
