<svg width="175" height="180" viewBox="0 0 175 180" fill="none" xmlns="http://www.w3.org/2000/svg">
<path d="M168.675 127.295C160.406 115.273 145.758 110.29 132.424 113.808L107.538 88.9223L102.284 94.1739L118.996 110.883C121.38 113.274 121.38 117.12 118.996 119.51C117.803 120.703 116.251 121.3 114.667 121.3C113.115 121.3 111.566 120.706 110.373 119.51L93.6633 102.77L88.4117 108.055L111.146 130.789C105.569 141.471 105.924 154.782 113.205 165.405C120.247 175.669 131.943 180.768 143.521 179.906L128.303 157.733C126.217 154.687 126.993 150.575 130.034 148.453L146.836 136.909C149.879 134.82 154.027 135.596 156.142 138.61L171.33 160.78C176.313 150.303 175.719 137.529 168.675 127.295ZM63.1951 57.5948C64.7497 57.5948 66.3312 58.1886 67.4949 59.3851L86.144 78.0342L91.3955 72.7826L67.1965 48.5865C72.5077 37.9043 71.911 24.7454 64.6005 14.3019C57.4393 4.12696 45.7127 -0.885922 34.1651 0.12859L49.5947 22.1167C51.7103 25.1602 50.9642 29.3078 47.9505 31.4293L31.2708 43.1558C28.2272 45.2714 24.0797 44.5583 21.9611 41.5118L6.50176 19.4939C1.64105 30.0537 2.35718 42.7948 9.48562 52.9698C17.9628 65.0275 32.8821 69.8286 46.3393 65.9794L72.2691 91.9091L77.5505 86.6576L58.9013 68.0084C56.5142 65.6184 56.5142 61.7722 58.9013 59.3821C60.065 58.1885 61.6435 57.5948 63.1951 57.5948Z" fill="#FFCB00"/>
<path d="M82.5305 120.703C81.3997 121.834 79.5586 121.834 78.4277 120.703L59.6085 101.884C58.4747 100.75 58.4747 98.9152 59.6085 97.7814L60.6171 96.7728C61.748 95.642 63.586 95.642 64.7199 96.7728L83.539 115.592C84.6699 116.726 84.6699 118.564 83.539 119.698L82.5305 120.703Z" fill="#FFCB00"/>
<path d="M74.1786 124.881L33.0611 169.728L27.9915 175.248C26.41 176.83 24.6168 178.023 22.6474 178.796C21.1555 179.426 19.6337 179.781 18.0851 179.903C17.5778 179.963 17.0706 179.989 16.5335 179.989C12.3829 180.019 8.23533 178.438 5.07244 175.275C-1.28318 168.919 -1.28318 158.655 5.07244 152.332L10.5657 147.289L55.4101 106.142L74.1786 124.881Z" fill="#FFCB00"/>
<path d="M158.41 29.0663L150.595 41.3598L143.673 44.3138L81.5787 106.435L73.8802 98.7364L136.004 36.6154L138.958 29.7257L151.252 21.905L151.908 22.5644L142.84 30.1435C141.256 31.7249 141.972 35.1265 143.553 36.7378C145.195 38.3491 148.686 39.3009 150.3 37.6926L157.727 28.383L158.41 29.0663Z" fill="#FFCB00"/>
</svg>
