<svg width="115" height="180" viewBox="0 0 115 180" fill="none" xmlns="http://www.w3.org/2000/svg">
<path d="M85.8095 108.249C82.0109 115.849 70.7373 121.394 57.4166 121.394C43.6648 121.394 32.063 115.467 28.6956 107.463L34.8503 105.383V94.3673C41.5391 100.316 49.6947 103.564 58.0266 103.564C65.9545 103.564 73.5028 100.75 79.9855 95.3813V105.893L85.8095 108.249Z" fill="#FFCB00"/>
<path d="M99.5336 46.8774L95.0003 45.6113L94.7725 45.538C94.3441 45.3835 93.3789 45.1096 91.378 44.8005L88.5419 49.0817L88.4416 49.2823L88.3142 49.4098L87.8857 50.093C87.658 50.4482 87.4547 50.779 87.2513 51.08C85.6056 53.4876 84.3149 54.8324 80.5381 54.8324H79.3994L78.8408 54.5261C77.7291 53.9431 70.4601 52.8287 58.0233 52.8287C46.0176 52.8287 38.5452 53.8428 37.2546 54.5261L36.6987 54.8324H35.5573C31.6801 54.8324 30.4139 53.4361 28.7438 50.9037C28.5675 50.6272 28.3886 50.3479 28.1853 50.0442L27.7812 49.4125L27.6565 49.3149L27.5291 49.0573L24.7175 44.8033C22.6921 45.1096 21.7269 45.3862 21.2985 45.5163L21.0708 45.6139L16.6893 46.4734C15.5234 49.1332 15.1194 52.8559 15.7267 56.8849C16.513 62.153 18.8691 66.3827 21.5777 67.9796C21.857 68.1559 22.1363 68.3104 22.4399 68.408C24.7174 77.3743 29.099 85.1748 34.847 90.9011C41.2077 97.2591 49.2576 101.031 58.0233 101.031C66.2278 101.031 73.8276 97.7119 79.9823 92.0398C86.3647 86.2159 91.2261 77.9572 93.6608 68.3592C96.7246 67.2204 99.4604 62.66 100.347 56.8876C100.903 53.0592 100.548 49.4884 99.5336 46.8774ZM97.8363 56.5297C97.0283 61.7462 94.645 65.29 92.7715 65.9759L91.5298 66.4586L91.2017 67.7247C88.9486 76.6395 84.3665 84.6162 78.285 90.1636C72.358 95.6106 65.3683 98.4982 58.0233 98.4982C50.1713 98.4982 42.7748 95.2528 36.6446 89.0981C31.0999 83.5778 27.0464 76.2057 24.8937 67.7735L24.5413 66.4342L23.2235 66.0031C23.1964 66.0031 23.1205 65.9488 22.947 65.8485C21.1467 64.783 18.9695 61.4426 18.2374 56.5053C17.8063 53.6394 17.9337 50.8576 18.5655 48.6804L21.8326 48.046L22.0848 47.9185C22.2637 47.867 22.6948 47.7423 23.5299 47.5905L25.3275 50.3262L25.6311 50.9335L25.8833 51.1342L26.5937 52.2486C28.4672 55.0629 30.3923 57.3675 35.56 57.3675H37.3576L38.4747 56.7575C39.3097 56.4023 45.7166 55.3638 58.026 55.3638C70.2052 55.3638 76.7693 56.4267 77.7535 56.8063L78.7405 57.3648H80.5381C85.6028 57.3648 87.5306 55.1605 89.3526 52.5034L90.3151 51.0067L90.391 50.9037L90.6947 50.4238L92.5655 47.5877C93.3518 47.7396 93.7585 47.867 93.932 47.9158L94.214 48.0162L97.557 48.9543C98.1156 51.1098 98.243 53.7939 97.8363 56.5297Z" fill="#FFCB00"/>
<path d="M0.709044 160.395H1.21609H22.4402V141.757H92.8749V160.395H114.251V180H0.584351V160.395H0.709044Z" fill="#FFCB00"/>
<path d="M3.24109 111.314V157.867H19.9048V106.149L3.24109 111.314ZM11.5757 155.232C8.58511 155.232 6.15306 152.8 6.15306 149.788C6.15306 146.794 8.58511 144.365 11.5757 144.365C14.588 144.365 17.02 146.794 17.02 149.788C17.0173 152.8 14.588 155.232 11.5757 155.232Z" fill="#FFCB00"/>
<path d="M95.4043 106.145V157.863H112.071V111.31L95.4043 106.145ZM103.739 155.231C100.729 155.231 98.3216 152.799 98.3216 149.786C98.3216 146.793 100.729 144.364 103.739 144.364C106.729 144.364 109.159 146.793 109.159 149.786C109.159 152.799 106.727 155.231 103.739 155.231Z" fill="#FFCB00"/>
<path d="M96.8253 28.5176V44.0209C96.8253 43.3106 94.5966 42.6761 90.6977 42.1501C90.5188 42.1203 90.3154 42.0959 90.1392 42.0715L86.3894 47.7463C86.3623 47.7707 86.3623 47.7951 86.3406 47.8195C83.9601 51.4445 83.7052 52.304 80.5384 52.304H80.034C77.9057 51.1625 68.839 50.3003 58.0263 50.3003C47.2352 50.3003 38.2445 51.1381 36.0673 52.304H35.5576C32.3664 52.304 32.1115 51.4445 29.7581 47.8195C29.731 47.7951 29.731 47.7707 29.7066 47.7463L25.9325 42.0715C25.7562 42.0986 25.5528 42.123 25.3766 42.1501C21.5021 42.6761 19.2463 43.3133 19.2463 44.0209V28.5176C19.2463 11.523 36.5988 0 58.0236 0C79.4512 0 96.8253 11.523 96.8253 28.5176Z" fill="#FFCB00"/>
</svg>
