<svg width="181" height="180" viewBox="0 0 181 180" fill="none" xmlns="http://www.w3.org/2000/svg">
<path d="M90.7114 0.000879975C41.1309 -0.216851 0.570685 39.9981 0.384059 89.5817C0.166327 139.224 40.3844 179.816 90.0272 179.999C139.577 180.189 180.137 140.002 180.386 90.3593C180.541 40.7477 140.357 0.187507 90.7114 0.000879975ZM142.811 143.7L137.057 148.864C135.502 150.049 133.667 151.414 131.676 152.69C129.374 154.276 127.01 155.641 124.709 156.733C114.289 162.211 102.376 165.131 90.3071 165.131H90.1205C77.8031 165.1 66.1078 162.145 55.3146 156.36L48.5027 152.285C46.512 150.976 44.9879 149.859 43.6504 148.739L43.5882 148.705L42.9661 148.27L37.7716 143.511L37.4295 143.169C23.0281 128.801 15.1276 109.825 15.2209 89.703C15.252 85.3173 15.6564 81.1805 16.434 77.0436C16.8694 74.2131 17.4293 71.6625 18.1447 69.2675C18.6113 67.65 19.2334 65.9392 19.7933 64.3218L20.1354 63.3887C21.2241 60.4026 22.3127 58.0387 23.5569 55.8614C34.4435 34.2126 55.4079 19.1301 79.576 15.6402C82.0955 15.239 84.7083 15.0212 87.2589 14.9901C88.0987 14.8937 88.9696 14.8626 89.8716 14.8626C89.8716 14.8626 90.6492 14.8315 90.6803 14.8315C91.8934 14.8315 92.951 14.8626 94.1018 15.0212C96.0614 15.0523 98.4876 15.2701 101.691 15.7055C125.766 19.379 146.637 34.617 157.586 56.4835C158.986 59.314 160.012 61.6468 160.759 63.8521C161.599 65.6873 162.19 67.8677 162.718 69.8864C163.558 72.6236 164.149 75.3297 164.46 77.7558C165.113 81.4852 165.487 85.7497 165.518 90.2287C165.424 110.577 157.368 129.554 142.811 143.7Z" fill="#FFCB00"/>
<path d="M161.381 78.1319C161.07 75.6467 160.448 73.0961 159.701 70.67C159.203 68.7104 158.675 66.7508 157.835 64.8845C156.995 62.4895 155.937 60.1566 154.818 57.886C144.553 37.3882 124.771 22.3648 101.287 18.7878C98.7674 18.4487 96.2168 18.1687 93.7285 18.1065C92.702 17.979 91.7378 17.9479 90.7113 17.9479C89.5916 17.979 88.534 17.9479 87.5076 18.1065C84.9881 18.1376 82.4375 18.3553 80.0114 18.7255C56.4964 22.1159 36.5584 36.9527 26.2629 57.4195C24.9565 59.687 23.9611 61.9918 23.0591 64.418C22.4059 66.2842 21.6905 68.2407 21.1306 70.1723C20.4152 72.5705 19.8864 75.0558 19.4821 77.6063C18.7356 81.5908 18.3623 85.5691 18.3312 89.7091C18.2379 109.737 26.4806 127.874 39.6378 140.969L39.8866 141.218L45.0811 145.974L45.2988 146.067C46.8229 147.374 48.5026 148.556 50.12 149.613L56.7764 153.626C66.6987 158.944 77.9896 161.993 90.1203 162.024C102.096 162.055 113.418 159.162 123.371 153.937C125.673 152.845 127.915 151.511 129.996 150.08C131.738 148.96 133.387 147.747 134.973 146.531L140.634 141.464C153.947 128.524 162.314 110.359 162.407 90.2627C162.376 86.157 162.065 82.0853 161.381 78.1319ZM152.298 67.1863C153.014 68.9002 153.573 70.7944 154.009 72.4118C154.009 72.4772 154.009 72.4771 154.04 72.5393L113.635 85.4788C113.262 83.457 112.609 81.5255 111.738 79.7214L152.143 66.7166C152.205 66.9064 152.205 66.9966 152.298 67.1863ZM149.063 59.687L104.273 70.7633L101.225 24.9153C121.694 28.2435 139.39 41.2451 149.063 59.687ZM109.747 84.6017C109.747 86.4991 108.192 88.0263 106.295 88.0263C104.397 88.0263 102.842 86.5022 102.842 84.6017C102.842 82.6763 104.397 81.1522 106.295 81.1522C108.192 81.1522 109.747 82.6763 109.747 84.6017ZM103.713 103.264C103.713 105.162 102.189 106.689 100.26 106.689C98.363 106.689 96.8078 105.165 96.8078 103.264C96.8078 101.339 98.363 99.8149 100.26 99.8149C102.189 99.8149 103.713 101.339 103.713 103.264ZM87.4796 24.0755C87.7284 24.0101 87.9773 23.9822 88.195 23.9822C88.8482 23.9479 89.4703 23.948 90.1546 23.948H91.0877C91.7098 23.948 92.4252 23.9479 93.5449 24.0755H93.6694L93.5139 66.502C92.4874 66.3465 91.4298 66.2843 90.3723 66.2843C89.3147 66.2843 88.2883 66.3496 87.2618 66.502L87.4796 24.0755ZM90.3692 69.488C92.2977 69.488 93.8218 71.0122 93.8218 72.9375C93.8218 74.8349 92.2977 76.3621 90.3692 76.3621C88.4718 76.3621 86.9166 74.838 86.9166 72.9375C86.9166 71.0122 88.4718 69.488 90.3692 69.488ZM90.3692 80.4337C95.657 80.4337 99.9494 84.7292 99.9494 90.0139C99.9494 95.2705 95.657 99.563 90.3692 99.563C85.1125 99.563 80.8201 95.2705 80.8201 90.0139C80.8201 84.7292 85.1125 80.4337 90.3692 80.4337ZM80.5433 99.8149C82.4407 99.8149 83.9959 101.339 83.9959 103.264C83.9959 105.162 82.4407 106.689 80.5433 106.689C78.6459 106.689 77.0907 105.165 77.0907 103.264C77.0876 101.339 78.6428 99.8149 80.5433 99.8149ZM74.5681 88.0263C72.6707 88.0263 71.1155 86.5022 71.1155 84.6017C71.1155 82.6763 72.6707 81.1522 74.5681 81.1522C76.4655 81.1522 78.0207 82.6763 78.0207 84.6017C78.0207 86.5022 76.4655 88.0263 74.5681 88.0263ZM79.9803 24.7909L76.6521 70.6389V70.67H76.621L31.9861 59.2858C41.7218 40.8719 59.5135 28.0258 79.9803 24.7909ZM26.9161 71.7897C27.3826 70.0168 28.0047 68.2408 28.6579 66.502C28.689 66.4678 28.7201 66.3153 28.7823 66.2531L69.1248 79.5658C68.1917 81.3699 67.5385 83.3264 67.103 85.3482L26.8227 72.0386C26.8539 71.9764 26.8881 71.8799 26.9161 71.7897ZM43.1526 136.052C30.9596 123.579 24.2411 107.187 24.3033 89.7059C24.3344 86.3155 24.6765 82.9563 25.2053 79.5037L25.6408 79.6591L67.694 96.9253L43.1526 136.052ZM53.6659 144.823L53.4793 144.636C51.893 143.669 50.3688 142.521 49.1246 141.464L48.8447 141.246L73.8527 107C75.3146 108.459 76.9943 109.703 78.7983 110.67L53.6659 144.823ZM90.1515 156.052C79.5759 155.99 69.467 153.501 60.3534 148.742L90.0582 113.715L119.856 149.022C110.712 153.719 100.634 156.052 90.1515 156.052ZM131.365 141.775C129.841 142.891 128.41 144.042 126.668 145.165C126.637 145.165 126.606 145.224 126.575 145.29L101.691 110.857C103.526 109.865 105.206 108.617 106.699 107.187L131.458 141.647C131.427 141.713 131.427 141.713 131.365 141.775ZM137.119 136.518L113.044 96.9844L155.595 79.9392C156.186 83.3296 156.404 86.8164 156.373 90.2347C156.342 107.781 149.499 124.201 137.119 136.518Z" fill="#FFCB00"/>
</svg>
