<svg width="181" height="174" viewBox="0 0 181 174" fill="none" xmlns="http://www.w3.org/2000/svg">
<path d="M10.136 141.35L4.76393 146.645L31.0583 173.322L36.4304 168.027L10.136 141.35Z" fill="#FFCB00"/>
<path d="M59.755 80.2038L56.4759 83.4359L95.0259 122.546L98.305 119.314L59.755 80.2038Z" fill="#FFCB00"/>
<path d="M59.4653 71.7667L61.4047 69.8739C60.3463 70.9168 60.3463 72.6508 61.4452 73.7497L70.1679 82.6189C71.2357 83.7178 72.9946 83.7457 74.0562 82.7029C72.9946 83.7457 72.9635 85.4736 74.0406 86.5382L92.2054 104.977C93.2451 106.038 94.9449 106.029 96.0095 104.989C94.9449 106.029 94.9791 107.766 96.05 108.865L104.776 117.734C105.875 118.836 107.599 118.858 108.661 117.818L106.753 119.714C105.691 120.757 103.96 120.76 102.917 119.695L59.4465 75.5958C58.4068 74.5404 58.4037 72.8095 59.4653 71.7667Z" fill="#FFCB00"/>
<path d="M115.883 110.684L114.268 112.274C115.024 111.188 114.893 109.69 113.935 108.707L105.212 99.8376C104.107 98.7667 102.385 98.7076 101.32 99.7817C102.388 98.7076 102.41 97.0141 101.339 95.9432L83.1744 77.5077C82.1315 76.4492 80.4068 76.415 79.339 77.4921C80.4068 76.415 80.4037 74.6872 79.336 73.5883L70.6131 64.7192C69.508 63.6483 67.7865 63.5922 66.7187 64.6631L61.4078 69.8744L68.6332 62.7392C69.6948 61.6964 71.4257 61.6933 72.4686 62.758L115.933 106.889C116.973 107.913 116.945 109.641 115.883 110.684Z" fill="#FFCB00"/>
<path d="M114.237 112.302C114.156 112.414 114.081 112.498 113.972 112.613L110.423 116.063L114.237 112.302Z" fill="#FFCB00"/>
<path d="M49.6342 101.03C48.5695 99.9499 46.6332 100.109 45.3413 101.382C44.0525 102.655 43.8843 104.57 44.949 105.647C43.8843 104.57 41.9543 104.722 40.6592 105.998C39.3673 107.269 39.2023 109.18 40.2639 110.26C39.2023 109.18 37.2691 109.339 35.9741 110.612C34.6821 111.885 34.5171 113.797 35.5818 114.874C34.5171 113.794 32.587 113.952 31.292 115.229C30.0001 116.499 29.8351 118.413 30.8997 119.487C29.8351 118.41 27.9019 118.569 26.61 119.842C25.318 121.116 25.1499 123.024 26.2146 124.104C25.1499 123.024 23.2167 123.186 21.9279 124.456C20.6329 125.732 20.4492 127.659 21.5139 128.736C20.4492 127.659 18.5315 127.799 17.2396 129.076C15.9508 130.343 15.7609 132.276 16.8256 133.356C15.7609 132.276 13.8464 132.419 12.5545 133.689C11.2626 134.963 11.0789 136.893 12.1435 137.973L39.8436 166.074C40.9051 167.158 42.8415 166.996 44.1303 165.726C45.4222 164.453 45.5903 162.541 44.5256 161.461C45.5903 162.541 47.5235 162.382 48.8155 161.109C50.1074 159.836 50.2755 157.928 49.2139 156.844C50.2786 157.928 52.2087 157.766 53.5037 156.492C54.7956 155.222 54.9824 153.292 53.9177 152.212C54.9824 153.292 56.8939 153.152 58.1889 151.876C59.4808 150.609 59.6676 148.679 58.6029 147.595C59.6676 148.679 61.5821 148.535 62.8709 147.265C64.1629 145.995 64.3496 144.062 63.285 142.982C64.3496 144.062 66.2642 143.919 67.5561 142.649C68.848 141.375 69.0348 139.445 67.9701 138.362C69.0348 139.445 70.9493 139.302 72.2412 138.029C73.5332 136.759 73.7169 134.829 72.6522 133.745C73.7137 134.829 75.6314 134.685 76.9202 133.415C78.2121 132.142 78.402 130.209 77.3374 129.129C78.402 130.209 80.3197 130.069 81.6085 128.795C82.9191 127.507 83.0872 125.592 82.0225 124.509C83.0872 125.592 85.0017 125.452 86.2936 124.182C87.6042 122.89 87.7723 120.975 86.7077 119.898L59.0076 91.7967C57.943 90.7134 56.0284 90.8535 54.7178 92.1454C53.429 93.4155 53.2609 95.33 54.3256 96.4071C53.2609 95.33 51.3464 95.467 50.0389 96.7589C48.7345 98.0384 48.5695 99.9499 49.6342 101.03Z" fill="#FFCB00"/>
<path d="M125.873 87.4007L113.81 99.3144L80.1889 65.8833L92.5851 53.6396C96.3613 49.9039 102.388 49.9848 106.093 53.761L125.991 73.9274C129.696 77.6693 129.643 83.6993 125.873 87.4007Z" fill="#FFCB00"/>
<path d="M119.965 38.7995C118.175 36.9815 115.391 36.8383 113.751 38.4571C112.092 40.0853 112.213 42.8496 114.006 44.6677C112.213 42.8496 109.436 42.7064 107.817 44.3034C106.161 45.9378 106.283 48.7022 108.073 50.5203L129.727 72.4922C131.539 74.332 134.303 74.4971 135.963 72.8596C137.581 71.2657 137.476 68.4857 135.664 66.6396C137.479 68.4857 140.24 68.6476 141.896 67.0102C143.537 65.3945 143.434 62.6114 141.619 60.7716C143.434 62.6114 146.195 62.7733 147.833 61.1638C149.489 59.5295 149.367 56.765 147.553 54.919C149.364 56.765 152.147 56.9082 153.785 55.2894C155.425 53.6768 155.301 50.9156 153.486 49.0727L131.828 27.1006C130.035 25.2826 127.28 25.1176 125.64 26.7364C124.002 28.349 124.102 31.1289 125.898 32.9469C124.105 31.1289 121.347 30.9671 119.688 32.6045C118.05 34.2171 118.175 36.9815 119.965 38.7995Z" fill="#FFCB00"/>
<path d="M148.097 12.9083L135.365 25.4571L155.208 45.5892L167.94 33.0404C170.636 30.3819 170.723 25.9676 168.385 22.5494C168.086 22.014 167.666 21.5501 167.208 21.0832L160.042 13.811C159.585 13.3472 159.127 12.9207 158.595 12.6125C155.186 10.2061 150.79 10.2466 148.097 12.9083Z" fill="#FFCB00"/>
<path d="M9.76702 156.323L6.39079 159.651L18.0279 171.455L21.4042 168.127L9.76702 156.323Z" fill="#FFCB00"/>
<path d="M9.48156 162.698L6.98918 165.154L12.6092 170.858L15.1016 168.402L9.48156 162.698Z" fill="#FFCB00"/>
<path d="M169.87 1.46159L160.406 10.7914C160.942 11.0965 161.415 11.5043 161.873 11.965L169.054 19.2527C169.509 19.7166 169.907 20.196 170.209 20.7346L179.673 11.4047C180.732 10.365 180.766 8.65898 179.701 7.57875L173.699 1.48957C172.631 0.409333 170.929 0.415598 169.87 1.46159Z" fill="#FFCB00"/>
<path d="M5.07065 151.505C-0.981149 157.467 -1.05585 167.233 4.9119 173.284L6.8389 171.385C1.92025 166.392 1.9794 158.354 6.97276 153.432L5.07065 151.505Z" fill="#FFCB00"/>
</svg>
