<svg width="81" height="81" viewBox="0 0 81 81" fill="none" xmlns="http://www.w3.org/2000/svg">
<path d="M31.71 14.5819C29.42 11.1969 27.075 8.34194 24.96 6.36694C23.9092 5.33932 22.7131 4.47172 21.41 3.79194C20.325 3.27194 18.61 2.76694 17 3.69194C15.165 4.75694 14.865 6.84194 14.85 8.17194C14.835 9.69194 15.17 11.4919 15.715 13.3919C16.695 16.8269 18.495 21.0319 20.89 25.4019L4.50998 41.7819C3.12498 43.1669 3.16498 45.0619 3.41998 46.3719C3.69498 47.7869 4.35498 49.3369 5.21998 50.8869C6.95998 54.0219 9.81998 57.6919 13.35 61.2269C16.885 64.7619 20.555 67.6169 23.69 69.3569C25.24 70.2219 26.79 70.882 28.205 71.1569C29.515 71.4069 31.405 71.4519 32.795 70.0669L60.87 41.9919C61.46 43.2769 61.33 44.5519 61.12 46.6869C60.97 48.1469 60.78 50.0119 60.755 52.5669V53.1819H60.77C60.8748 54.4313 61.4451 55.5957 62.3679 56.4443C63.2908 57.293 64.4987 57.764 65.7525 57.764C67.0062 57.764 68.2142 57.293 69.137 56.4443C70.0598 55.5957 70.6302 54.4313 70.735 53.1819H70.75V52.8969C70.7547 52.7017 70.7481 52.5064 70.73 52.3119C70.455 46.0619 67.23 38.6219 61.43 34.8419C61.1223 34.098 60.77 33.3734 60.375 32.6719C58.63 29.5419 55.775 25.8719 52.24 22.3369C48.705 18.8019 45.035 15.9419 41.9 14.2019C40.35 13.3419 38.8 12.6819 37.385 12.4019C36.075 12.1519 34.185 12.1119 32.795 13.4969L31.71 14.5819ZM21.55 10.0169C23.455 11.7969 25.77 14.6269 28.105 18.1769L24.585 21.7019C22.675 18.0669 21.285 14.6919 20.52 12.0119C20.1854 10.9161 19.9659 9.78831 19.865 8.64694C20.3216 8.94694 20.8833 9.40361 21.55 10.0169ZM23.52 29.8419C26.22 34.1019 29.055 37.6769 31.555 40.0069C31.7953 40.2309 32.0774 40.4052 32.3851 40.5201C32.6928 40.635 33.0201 40.6882 33.3484 40.6766C33.6766 40.665 33.9994 40.5888 34.2982 40.4525C34.597 40.3161 34.8661 40.1223 35.09 39.8819C35.3139 39.6416 35.4883 39.3596 35.6032 39.0518C35.718 38.7441 35.7712 38.4168 35.7596 38.0886C35.748 37.7603 35.6718 37.4375 35.5355 37.1387C35.3992 36.8399 35.2053 36.5709 34.965 36.3469C32.7 34.2369 29.88 30.6669 27.145 26.2119L32.585 20.7719C32.855 21.3753 33.16 21.9836 33.5 22.5969C35.245 25.7319 38.1 29.4019 41.635 32.9369C45.165 36.4719 48.835 39.3269 51.975 41.0669C52.585 41.4103 53.1933 41.7153 53.8 41.9819L29.495 66.2919L29.155 66.2419C28.47 66.1069 27.445 65.7219 26.115 64.9819C23.495 63.5219 20.185 60.9819 16.885 57.6819C13.585 54.3819 11.045 51.0819 9.58498 48.4519C8.84998 47.1269 8.45998 46.1019 8.32998 45.4169L8.27998 45.0769L23.52 29.8419ZM37.87 20.1669C37.3505 19.2871 36.9456 18.3444 36.665 17.3619C37.34 17.5269 38.285 17.9119 39.475 18.5669C42.095 20.0269 45.405 22.5669 48.705 25.8669C50.955 28.1169 52.855 30.3719 54.295 32.4169C52.5055 32.2946 50.7078 32.448 48.965 32.8719C47.6449 31.7752 46.3768 30.6173 45.165 29.4019C41.865 26.1019 39.33 22.7919 37.875 20.1669H37.87Z" fill="white"/>
</svg>
