<svg width="81" height="81" viewBox="0 0 81 81" fill="none" xmlns="http://www.w3.org/2000/svg">
<path d="M14.0834 70.6816C11.3056 70.6816 8.94449 69.7094 7.00004 67.765C5.0556 65.8205 4.08337 63.4594 4.08337 60.6816C4.08337 58.515 4.70893 56.5705 5.96004 54.8483C6.76761 53.7366 7.71916 52.8449 8.81468 52.173C9.90708 51.503 10.75 50.4044 10.75 49.1229V32.2412C10.75 30.9593 9.90654 29.8605 8.81366 29.1906C7.71751 28.5187 6.7663 27.6268 5.96004 26.515C4.71115 24.7928 4.0856 22.8483 4.08337 20.6816C4.08337 17.9039 5.0556 15.5428 7.00004 13.5983C8.94449 11.6539 11.3056 10.6816 14.0834 10.6816C16.8612 10.6816 19.2223 11.6539 21.1667 13.5983C23.1112 15.5428 24.0834 17.9039 24.0834 20.6816C24.0834 22.8483 23.4589 24.7928 22.21 26.515C21.4036 27.6271 20.4516 28.5191 19.3542 29.1911C18.2607 29.8607 17.4167 30.9597 17.4167 32.242V34.3483C17.4167 36.0052 18.7599 37.3483 20.4167 37.3483H34.4167C36.0736 37.3483 37.4167 36.0052 37.4167 34.3483V32.2412C37.4167 30.9593 36.5732 29.8605 35.4803 29.1906C34.3842 28.5187 33.433 27.6268 32.6267 26.515C31.3778 24.7928 30.7523 22.8483 30.75 20.6816C30.75 17.9039 31.7223 15.5428 33.6667 13.5983C35.6112 11.6539 37.9723 10.6816 40.75 10.6816C43.5278 10.6816 45.8889 11.6539 47.8334 13.5983C49.7778 15.5428 50.75 17.9039 50.75 20.6816C50.75 22.8483 50.1256 24.7928 48.8767 26.515C48.0702 27.6271 47.1183 28.5191 46.0209 29.1911C44.9273 29.8607 44.0834 30.9597 44.0834 32.242V34.3483C44.0834 36.0052 45.4265 37.3483 47.0834 37.3483H61.0834C62.7402 37.3483 64.0834 36.0052 64.0834 34.3483V32.2412C64.0834 30.9593 63.2399 29.8605 62.147 29.1906C61.0508 28.5187 60.0996 27.6268 59.2934 26.515C58.0445 24.7928 57.4189 22.8483 57.4167 20.6816C57.4167 17.9039 58.3889 15.5428 60.3334 13.5983C62.2778 11.6539 64.6389 10.6816 67.4167 10.6816C70.1945 10.6816 72.5556 11.6539 74.5 13.5983C76.4445 15.5428 77.4167 17.9039 77.4167 20.6816C77.4167 22.8483 76.7923 24.7928 75.5434 26.515C74.7369 27.6271 73.785 28.5191 72.6875 29.1911C71.594 29.8607 70.75 30.9597 70.75 32.242V41.015C70.75 42.6718 69.4069 44.015 67.75 44.015H47.0834C45.4265 44.015 44.0834 45.3581 44.0834 47.015V49.1221C44.0834 50.404 44.9268 51.5029 46.0199 52.1725C47.1167 52.8444 48.0689 53.7364 48.8767 54.8483C50.1278 56.5705 50.7523 58.515 50.75 60.6816C50.75 63.4594 49.7778 65.8205 47.8334 67.765C45.8889 69.7094 43.5278 70.6816 40.75 70.6816C37.9723 70.6816 35.6112 69.7094 33.6667 67.765C31.7223 65.8205 30.75 63.4594 30.75 60.6816C30.75 58.515 31.3756 56.5705 32.6267 54.8483C33.4343 53.7366 34.3858 52.8449 35.4813 52.173C36.5737 51.5031 37.4167 50.4044 37.4167 49.1229V47.015C37.4167 45.3581 36.0736 44.015 34.4167 44.015H20.4167C18.7599 44.015 17.4167 45.3581 17.4167 47.015V49.1221C17.4167 50.404 18.2601 51.5029 19.3532 52.1725C20.45 52.8444 21.4023 53.7364 22.21 54.8483C23.4612 56.5705 24.0856 58.515 24.0834 60.6816C24.0834 63.4594 23.1112 65.8205 21.1667 67.765C19.2223 69.7094 16.8612 70.6816 14.0834 70.6816Z" fill="white"/>
</svg>
