<svg width="81" height="81" viewBox="0 0 81 81" fill="none" xmlns="http://www.w3.org/2000/svg">
<path d="M57.4166 11.8159C62.484 14.7415 66.6919 18.9495 69.6175 24.0169C72.5431 29.0842 74.0833 34.8324 74.0833 40.6836C74.0833 46.5349 72.543 52.2831 69.6173 57.3504C66.6916 62.4177 62.4836 66.6256 57.4163 69.5512C52.3489 72.4767 46.6007 74.0169 40.7494 74.0168C34.8982 74.0167 29.15 72.4764 24.0827 69.5506C19.0155 66.6249 14.8076 62.4169 11.8821 57.3495C8.95656 52.2821 7.41648 46.5338 7.41663 40.6826L7.43329 39.6026C7.61997 33.8459 9.29512 28.2358 12.2954 23.3192C15.2957 18.4027 19.5188 14.3474 24.5529 11.5489C29.5871 8.75029 35.2604 7.30391 41.02 7.35071C46.7795 7.39751 52.4286 8.93591 57.4166 11.8159ZM14.0833 40.6826C14.0835 47.1776 16.4541 53.4492 20.7502 58.3204C25.0464 63.1916 30.9726 66.3274 37.4166 67.1393V50.1159C35.8869 49.5756 34.5115 48.6711 33.4093 47.4806C32.3071 46.2902 31.5111 44.8494 31.09 43.2826L14.19 38.2693C14.1211 39.0693 14.0855 39.8748 14.0833 40.6859M67.3066 38.2693L50.41 43.2793C49.9896 44.8463 49.1943 46.2875 48.0927 47.4786C46.9911 48.6697 45.6162 49.5748 44.0866 50.1159V67.1426C50.8073 66.2956 56.9538 62.9227 61.2781 57.7088C65.6024 52.4949 67.7804 45.8306 67.37 39.0693L67.3066 38.2693ZM27.4166 17.5893C21.9327 20.7557 17.7545 25.7705 15.63 31.7359L31.67 36.4893C32.4704 34.7546 33.7509 33.2855 35.36 32.2559C36.9692 31.2262 38.8396 30.679 40.75 30.679C42.6603 30.679 44.5308 31.2262 46.1399 32.2559C47.749 33.2855 49.0296 34.7546 49.83 36.4893L65.87 31.7359C64.5582 28.0532 62.4528 24.7039 59.7027 21.9253C56.9527 19.1467 53.6254 17.0067 49.9564 15.6569C46.2874 14.3071 42.3666 13.7805 38.4715 14.1145C34.5764 14.4484 30.8023 15.6347 27.4166 17.5893Z" fill="white"/>
</svg>
