<svg width="78" height="81" viewBox="0 0 78 81" fill="none" xmlns="http://www.w3.org/2000/svg">
<path d="M74.8488 57.2571C71.174 51.914 64.6638 49.6993 58.7372 51.2628L47.677 40.2027L45.3416 42.5367L52.7694 49.9632C53.829 51.0254 53.829 52.7349 52.7694 53.7971C52.239 54.3276 51.5494 54.5928 50.8452 54.5928C50.1556 54.5928 49.4673 54.3289 48.9368 53.7971L41.5103 46.3574L39.1762 48.706L49.2803 58.81C46.8017 63.5577 46.9595 69.4737 50.1954 74.1948C53.3251 78.7568 58.5237 81.0232 63.6692 80.6399L56.9058 70.7852C55.9788 69.4312 56.3236 67.6038 57.6749 66.6609L65.1426 61.53C66.4953 60.6016 68.3386 60.9465 69.2789 62.2859L76.029 72.1392C78.2437 67.4831 77.9798 61.8058 74.8488 57.2571ZM27.9688 26.2793C28.6598 26.2793 29.3627 26.5432 29.8799 27.075L38.1684 35.3635L40.5024 33.0295L29.7472 22.2756C32.1078 17.528 31.8426 11.6796 28.5935 7.03805C25.4107 2.51585 20.1988 0.287897 15.0666 0.738792L21.9242 10.5113C22.8645 11.864 22.5329 13.7073 21.1935 14.6502L13.7802 19.862C12.4275 20.8023 10.5842 20.4853 9.64258 19.1313L2.77172 9.34558C0.611399 14.0389 0.929678 19.7016 4.09788 24.2238C7.86552 29.5828 14.4964 31.7166 20.4774 30.0058L32.0017 41.5301L34.349 39.1961L26.0605 30.9076C24.9996 29.8454 24.9996 28.1359 26.0605 27.0737C26.5777 26.5432 27.2792 26.2793 27.9688 26.2793Z" fill="white"/>
<path d="M36.5638 54.3272C36.0612 54.8298 35.2429 54.8298 34.7403 54.3272L26.3762 45.9631C25.8722 45.4592 25.8722 44.6436 26.3762 44.1397L26.8244 43.6914C27.3271 43.1888 28.144 43.1888 28.6479 43.6914L37.012 52.0555C37.5146 52.5594 37.5146 53.3764 37.012 53.8803L36.5638 54.3272Z" fill="white"/>
<path d="M32.8522 56.1838L14.5777 76.1159L12.3245 78.5693C11.6217 79.2722 10.8247 79.8027 9.94939 80.1461C9.28631 80.426 8.60995 80.5838 7.92167 80.6381C7.69623 80.6647 7.47077 80.6766 7.23206 80.6766C5.38737 80.6899 3.544 79.987 2.13826 78.5813C-0.686468 75.7565 -0.686468 71.1946 2.13826 68.3844L4.57974 66.1432L24.5106 47.8555L32.8522 56.1838Z" fill="white"/>
<path d="M70.2901 13.5988L66.8169 19.0626L63.7402 20.3755L36.1427 47.9848L32.7212 44.5633L60.3319 16.954L61.6448 13.8919L67.1087 10.416L67.4004 10.7091L63.3702 14.0775C62.666 14.7804 62.9843 16.2922 63.6871 17.0083C64.4165 17.7245 65.9682 18.1475 66.6856 17.4327L69.9864 13.2951L70.2901 13.5988Z" fill="white"/>
</svg>
