<svg width="81" height="81" viewBox="0 0 81 81" fill="none" xmlns="http://www.w3.org/2000/svg">
<path d="M40.25 70.6816V30.6816M40.25 30.6816H33.5833M40.25 30.6816H46.9166M33.5833 30.6816C30.44 30.6816 28.87 30.6816 27.8933 31.6583C26.9166 32.635 26.9166 34.205 26.9166 37.3483V70.6816M33.5833 30.6816V20.6816C33.5833 17.575 33.5833 16.0216 33.0766 14.7983C32.7416 13.9889 32.2503 13.2535 31.6309 12.6341C31.0115 12.0146 30.276 11.5233 29.4666 11.1883C28.2433 10.6816 26.69 10.6816 23.5833 10.6816M53.5833 70.6816V37.3483C53.5833 34.205 53.5833 32.635 52.6066 31.6583C51.63 30.6816 50.06 30.6816 46.9166 30.6816M46.9166 30.6816V20.6816C46.9166 17.575 46.9166 16.0216 47.4233 14.7983C47.7583 13.9889 48.2496 13.2535 48.869 12.6341C49.4885 12.0146 50.2239 11.5233 51.0333 11.1883C52.2566 10.6816 53.81 10.6816 56.9166 10.6816M66.9166 17.3483V30.6816M73.5833 24.015H60.25M20.25 24.015H6.91663" stroke="white" stroke-width="6" stroke-linecap="square" stroke-linejoin="round"/>
</svg>
