<svg width="81" height="81" viewBox="0 0 81 81" fill="none" xmlns="http://www.w3.org/2000/svg">
<path d="M40.2494 67.349C54.9777 67.349 66.916 55.4106 66.916 40.6823C66.916 25.954 54.9777 14.0156 40.2494 14.0156C25.521 14.0156 13.5827 25.954 13.5827 40.6823C13.5827 55.4106 25.521 67.349 40.2494 67.349Z" stroke="white" stroke-width="6.66667" stroke-linecap="round" stroke-linejoin="round"/>
<path d="M40.2494 47.3496C42.0175 47.3496 43.7132 46.6472 44.9634 45.397C46.2137 44.1467 46.916 42.4511 46.916 40.6829C46.916 38.9148 46.2137 37.2191 44.9634 35.9689C43.7132 34.7187 42.0175 34.0163 40.2494 34.0163C38.4813 34.0163 36.7856 34.7187 35.5353 35.9689C34.2851 37.2191 33.5827 38.9148 33.5827 40.6829C33.5827 42.4511 34.2851 44.1467 35.5353 45.397C36.7856 46.6472 38.4813 47.3496 40.2494 47.3496ZM40.2494 7.83446C40.2494 7.56668 40.4665 7.34924 40.7342 7.35314C44.9466 7.41441 49.1107 8.27367 53.0055 9.88696C57.0497 11.5621 60.7243 14.0174 63.8196 17.1127C66.9149 20.208 69.3702 23.8826 71.0454 27.9268C72.6586 31.8216 73.5179 35.9857 73.5792 40.1981C73.5831 40.4658 73.3656 40.6829 73.0979 40.6829H60.7442C60.4764 40.6829 60.26 40.4658 60.2535 40.1981C60.1293 35.0668 58.0368 30.1719 54.3986 26.5337C50.7604 22.8956 45.8655 20.803 40.7342 20.6788C40.4665 20.6723 40.2494 20.4559 40.2494 20.1881V7.83446Z" fill="white" stroke="white" stroke-width="6.66667" stroke-linecap="round"/>
</svg>
