<svg width="81" height="81" viewBox="0 0 81 81" fill="none" xmlns="http://www.w3.org/2000/svg">
<path d="M60.25 54.0149C62.9021 54.0149 65.4457 55.0684 67.321 56.9438C69.1964 58.8192 70.25 61.3627 70.25 64.0149C70.25 66.667 69.1964 69.2106 67.321 71.0859C65.4457 72.9613 62.9021 74.0149 60.25 74.0149H56.9166C56.0326 74.0149 55.1847 73.6637 54.5596 73.0386C53.9345 72.4135 53.5833 71.5656 53.5833 70.6815V57.3482C53.5833 56.4642 53.9345 55.6163 54.5596 54.9912C55.1847 54.3661 56.0326 54.0149 56.9166 54.0149H60.25ZM60.25 67.3482L60.64 67.3249C61.4836 67.2245 62.2571 66.8058 62.8024 66.1543C63.3477 65.5028 63.6237 64.6677 63.5739 63.8195C63.5241 62.9714 63.1523 62.1743 62.5345 61.591C61.9167 61.0078 61.0996 60.6825 60.25 60.6815V67.3482ZM61.9166 24.0149C64.1268 24.0149 66.2464 24.8929 67.8092 26.4557C69.372 28.0185 70.25 30.1381 70.25 32.3482C70.25 34.5583 69.372 36.678 67.8092 38.2408C66.2464 39.8036 64.1268 40.6815 61.9166 40.6815H60.25V44.0149C60.2499 44.8313 59.9501 45.6193 59.4076 46.2295C58.865 46.8396 58.1175 47.2294 57.3066 47.3249L56.9166 47.3482C56.0326 47.3482 55.1847 46.997 54.5596 46.3719C53.9345 45.7468 53.5833 44.8989 53.5833 44.0149V27.3482C53.5833 26.4642 53.9345 25.6163 54.5596 24.9912C55.1847 24.3661 56.0326 24.0149 56.9166 24.0149H61.9166ZM60.25 34.0149H61.9166C62.3587 34.0149 62.7826 33.8393 63.0951 33.5267C63.4077 33.2142 63.5833 32.7902 63.5833 32.3482C63.5833 31.9062 63.4077 31.4823 63.0951 31.1697C62.7826 30.8571 62.3587 30.6815 61.9166 30.6815H60.25V34.0149ZM43.5833 34.0149C44.4674 34.0149 45.3152 34.3661 45.9403 34.9912C46.5654 35.6163 46.9166 36.4642 46.9166 37.3482C46.9166 38.2323 46.5654 39.0801 45.9403 39.7052C45.3152 40.3304 44.4674 40.6815 43.5833 40.6815H33.5833V60.6815H43.5833C44.4674 60.6815 45.3152 61.0327 45.9403 61.6579C46.5654 62.283 46.9166 63.1308 46.9166 64.0149C46.9166 64.8989 46.5654 65.7468 45.9403 66.3719C45.3152 66.997 44.4674 67.3482 43.5833 67.3482H33.5833C31.8152 67.3482 30.1195 66.6458 28.8692 65.3956C27.619 64.1453 26.9166 62.4497 26.9166 60.6815V40.6815H20.25C19.8791 40.6817 19.3477 40.6817 18.7445 40.6818C15.921 40.6819 13.7005 38.3435 13.6418 35.5206C13.6338 35.1322 13.6204 34.7866 13.6 34.5149L13.5833 34.0149V26.7815C11.6328 26.0919 9.94415 24.8143 8.75015 23.1248C7.55614 21.4353 6.91554 19.4171 6.91663 17.3482L6.93329 16.7615C7.03998 14.9566 7.63402 13.2144 8.65221 11.7202C9.6704 10.2261 11.0746 9.03598 12.7155 8.27651C14.3563 7.51704 16.1724 7.21666 17.9704 7.40732C19.7684 7.59798 21.481 8.27255 22.9261 9.35925C24.3712 10.446 25.4946 11.9041 26.1768 13.5786C26.859 15.253 27.0744 17.0811 26.8002 18.8682C26.526 20.6554 25.7723 22.3348 24.6195 23.7277C23.4666 25.1205 21.9577 26.1748 20.2533 26.7782L20.25 34.0149H43.5833Z" fill="white"/>
</svg>
