<svg width="81" height="81" viewBox="0 0 81 81" fill="none" xmlns="http://www.w3.org/2000/svg">
<path d="M26.5833 14.0156C24.9265 14.0156 23.5833 15.3588 23.5833 17.0156V17.6823C23.5833 19.3391 24.9265 20.6823 26.5833 20.6823H30.5833C32.2402 20.6823 33.5833 22.0254 33.5833 23.6823V24.349C33.5833 26.0058 32.2402 27.349 30.5833 27.349H24.826C24.0303 27.349 23.2672 27.665 22.7046 28.2276L17.7953 33.1369C17.2327 33.6996 16.9166 34.4626 16.9166 35.2583V41.0156C16.9166 42.6725 15.5735 44.0156 13.9166 44.0156H13.25C11.5931 44.0156 10.25 42.6725 10.25 41.0156V37.0156C10.25 35.3588 8.90683 34.0156 7.24998 34.0156H6.58331C4.92646 34.0156 3.58331 35.3588 3.58331 37.0156V57.6823C3.58331 59.3391 4.92646 60.6823 6.58331 60.6823H7.24998C8.90684 60.6823 10.25 59.3391 10.25 57.6823V53.6823C10.25 52.0254 11.5931 50.6823 13.25 50.6823H13.9166C15.5735 50.6823 16.9166 52.0254 16.9166 53.6823V57.6823C16.9166 59.3391 18.2598 60.6823 19.9166 60.6823H25.674C26.4697 60.6823 27.2327 60.9984 27.7953 61.561L32.7046 66.4703C33.2672 67.0329 34.0303 67.349 34.826 67.349H57.25C58.9068 67.349 60.25 66.0058 60.25 64.349V57.0156C60.25 55.3588 61.5931 54.0156 63.25 54.0156H63.9167C65.5735 54.0156 66.9166 55.3588 66.9166 57.0156V61.0156C66.9166 62.6725 68.2598 64.0156 69.9166 64.0156H73.9166C75.5735 64.0156 76.9166 62.6725 76.9166 61.0156V33.6823C76.9166 32.0254 75.5735 30.6823 73.9166 30.6823H69.9166C68.2598 30.6823 66.9166 32.0254 66.9166 33.6823V37.6823C66.9166 39.3391 65.5735 40.6823 63.9166 40.6823H63.25C61.5931 40.6823 60.25 39.3391 60.25 37.6823V30.349C60.25 28.6921 58.9068 27.349 57.25 27.349H43.25C41.5931 27.349 40.25 26.0058 40.25 24.349V23.6823C40.25 22.0254 41.5931 20.6823 43.25 20.6823H47.25C48.9068 20.6823 50.25 19.3391 50.25 17.6823V17.0156C50.25 15.3588 48.9068 14.0156 47.25 14.0156H26.5833Z" fill="white"/>
</svg>
