<svg width="81" height="81" viewBox="0 0 81 81" fill="none" xmlns="http://www.w3.org/2000/svg">
<path fill-rule="evenodd" clip-rule="evenodd" d="M26.84 25.6817H20.5V30.6817H35.5C37.7014 30.6817 39.8412 29.9554 41.5877 28.6153C43.3342 27.2753 44.5897 25.3964 45.1595 23.27C45.7293 21.1437 45.5815 18.8888 44.7391 16.855C43.8967 14.8212 42.4068 13.1222 40.5004 12.0215C38.5939 10.9208 36.3776 10.4799 34.1951 10.7672C32.0126 11.0545 29.9858 12.054 28.4292 13.6105C26.8726 15.1671 25.8732 17.1938 25.5858 19.3764C25.2985 21.5589 25.7393 23.7752 26.84 25.6817ZM15.5 30.6817H10.5V25.6817H15.5V30.6817ZM55.925 35.6817H45.5V40.6817H63C64.5919 40.6808 66.1423 40.1735 67.4267 39.2331C68.7111 38.2927 69.663 36.9679 70.1446 35.4506C70.6262 33.9333 70.6125 32.3021 70.1056 30.7931C69.5986 29.2841 68.6246 27.9755 67.3246 27.0568C66.0246 26.1381 64.4659 25.6568 62.8742 25.6826C61.2825 25.7085 59.7404 26.2401 58.4709 27.2006C57.2014 28.1611 56.2704 29.5006 55.8127 31.0253C55.355 32.55 55.3944 34.1808 55.925 35.6817ZM40.5 35.6817V40.6817H10.5V35.6817H40.5ZM30.5 45.6817V50.6817H10.5V45.6817H30.5ZM48 50.6817H35.5V45.6817H58C60.8159 45.6817 63.5493 46.6324 65.7573 48.3799C67.9653 50.1274 69.5187 52.5692 70.1656 55.3097C70.8126 58.0503 70.5152 60.929 69.3218 63.4795C68.1284 66.0299 66.1088 68.1027 63.5902 69.362C61.0716 70.6213 58.2016 70.9933 55.4451 70.4178C52.6887 69.8422 50.2074 68.3529 48.4031 66.191C46.5988 64.0291 45.5774 61.3214 45.5042 58.5064C45.4311 55.6915 46.3105 52.9343 48 50.6817Z" fill="white"/>
</svg>
