<svg width="83" height="81" viewBox="0 0 83 81" fill="none" xmlns="http://www.w3.org/2000/svg">
<path d="M41.5 10.763C41.3495 10.9386 40.848 11.6157 40.3715 12.2427C38.3151 15.0514 33.6756 17.0075 28.2837 17.3837C26.3778 17.5342 25.8762 17.6345 25.7006 18.0107C25.5502 18.2615 25.4499 19.8163 25.4499 21.4715V24.506H21.6129C18.9546 24.506 17.6756 24.6063 17.4749 24.8069C16.9984 25.2834 17.1238 26.111 18.0517 28.5687C18.5282 29.8477 18.9295 31.0013 18.9295 31.1518C18.9295 31.2771 18.5282 32.4558 18.0517 33.7348C17.1238 36.1925 16.9984 37.0201 17.4749 37.4966C17.6756 37.6972 19.1552 37.7975 22.4404 37.7975L27.0799 37.8226L28.3088 40.3555C29.337 42.5123 29.8135 43.2144 31.569 44.9449C33.8009 47.1768 36.384 48.9825 39.9452 50.7881L42.2524 51.9668L44.5847 50.7881C48.0705 49.0075 50.6787 47.1768 52.9357 44.9198C54.6912 43.1894 55.1677 42.5373 56.1959 40.3555L57.4248 37.8226L62.0894 37.7975C65.3495 37.7975 66.8292 37.6972 67.0298 37.4966C67.5063 37.0201 67.3809 36.1925 66.453 33.7348C65.9765 32.4558 65.5752 31.2771 65.5752 31.1518C65.5752 31.0013 65.9765 29.8477 66.453 28.5687C67.3809 26.111 67.5063 25.2834 67.0298 24.8069C66.8292 24.6063 65.5502 24.506 62.8919 24.506H59.0549V21.4715C59.0549 19.8163 58.9546 18.2615 58.8041 18.0107C58.6285 17.6345 58.127 17.5342 56.221 17.3837C50.8292 17.0075 46.1897 15.0514 44.1332 12.2427C42.8542 10.5373 42.779 10.4621 42.2524 10.4621C41.9765 10.4621 41.6505 10.6126 41.5 10.763ZM43.5815 15.3524C46.1395 17.6094 50.5784 19.3398 55.1426 19.8665L56.6223 20.042L56.4718 24.832C56.1959 32.832 55.4687 36.7191 53.6129 40.0044C52.0078 42.9135 48.2962 46.0734 43.6818 48.4558L42.2524 49.2082L40.4216 48.2301C33.9263 44.6941 30.8417 41.3837 29.3872 36.2928C28.5596 33.484 28.2336 30.6753 28.0329 24.832L27.8825 20.042L29.3621 19.8665C33.7759 19.39 38.4404 17.5844 40.8731 15.3775C41.5752 14.7505 42.1771 14.2489 42.2022 14.2239C42.2524 14.2239 42.8793 14.7254 43.5815 15.3524ZM25.7006 28.5687C25.7006 29.9981 25.9514 32.2552 26.3276 34.4621L26.4781 35.2897H23.3182C21.5878 35.2897 20.1834 35.2395 20.1834 35.1894C20.1834 35.1392 20.5345 34.1862 20.9357 33.1079L21.6881 31.1518L20.9357 29.1956C20.5345 28.1173 20.1834 27.1894 20.1834 27.1141C20.1834 27.064 21.4373 27.0138 22.942 27.0138H25.7006V28.5687ZM64.3213 27.1141C64.3213 27.1894 63.9702 28.1173 63.569 29.1956L62.8166 31.1518L63.569 33.1079C63.9702 34.1862 64.3213 35.1392 64.3213 35.1894C64.3213 35.2395 62.9169 35.2897 61.1865 35.2897H58.0267L58.1771 34.4621C58.5533 32.2552 58.8041 29.9981 58.8041 28.5687V27.0138H61.5627C63.0925 27.0138 64.3213 27.064 64.3213 27.1141Z" fill="white"/>
<path d="M40.848 18.789C38.8418 20.068 36.2587 21.1463 33.7258 21.7733C32.4217 22.0993 31.1929 22.4504 31.0424 22.5758C30.6411 22.8767 30.6161 26.814 30.9922 30.2247C31.5941 35.9426 32.7477 38.8266 35.5063 41.5601C37.1364 43.1902 41.475 46.0742 42.2524 46.0742C43.0299 46.0742 47.3684 43.1902 48.9985 41.5601C51.7571 38.8266 52.9107 35.9426 53.5126 30.2247C53.8888 26.789 53.8637 22.8266 53.4875 22.5758C53.312 22.4755 52.2085 22.1495 51.0299 21.8485C48.0455 21.0711 46.4154 20.4191 44.2587 19.115C43.2305 18.5131 42.3277 17.9865 42.2273 17.9865C42.1521 17.9865 41.5502 18.3375 40.848 18.789ZM43.4562 21.5727C44.8606 22.4253 47.1427 23.4034 49.3747 24.0554L51.3559 24.6322L51.2054 27.5162C51.0048 30.977 50.4531 34.2874 49.7759 36.093C48.8982 38.4002 46.7665 40.6322 43.6568 42.5382L42.2524 43.3658L40.848 42.5382C37.7383 40.6322 35.6067 38.4002 34.7289 36.093C34.0518 34.2874 33.5001 30.977 33.2994 27.5162L33.149 24.6322L35.4813 23.93C37.638 23.278 41.0737 21.7733 41.6255 21.2216C41.9766 20.8705 42.428 20.9457 43.4562 21.5727Z" fill="white"/>
<path d="M43.1051 30.5755L41.2493 32.3811L40.2963 31.4532C38.942 30.1241 37.7383 30.2746 37.7383 31.7793C37.7383 32.2808 38.1646 32.8576 39.3433 33.9862C40.221 34.8388 41.1489 35.541 41.3997 35.541C41.6505 35.541 42.9546 34.4376 44.3088 33.0833C46.7916 30.6006 47.2179 29.8231 46.4656 29.0708C45.7884 28.3937 44.9609 28.7699 43.1051 30.5755Z" fill="white"/>
<path d="M48.7727 54.5002C42.4279 55.2024 41.199 55.2024 37.1113 54.6256C34.2523 54.1993 33.7758 54.1993 33.2994 54.5002C32.6473 54.9015 32.547 55.8795 33.0736 56.331C33.5251 56.7071 39.7947 57.61 41.8762 57.61C42.7037 57.61 45.4874 57.3842 48.0956 57.0833C53.9388 56.4563 54.5658 56.4814 54.9169 57.4595C55.1175 58.0614 55.0674 58.2369 54.5909 58.6382C53.8887 59.1899 48.4216 61.3216 45.6379 62.1241C43.0548 62.8513 42.7539 63.0269 42.7539 63.7542C42.7539 64.7071 43.431 65.2087 44.4843 65.0081C47.5188 64.4313 54.942 61.5723 56.221 60.494C57.0736 59.7667 57.8511 59.541 63.594 58.1617C67.105 57.309 70.2147 56.6068 70.5156 56.6068C71.1426 56.6068 71.8448 57.3592 71.8448 58.0363C71.8448 58.7636 71.2178 59.215 69.0862 60.0426C68.058 60.4689 63.9451 62.099 59.9827 63.7291C56.0204 65.3341 51.4561 67.1147 49.826 67.7165L46.8918 68.7698H39.0423H31.1928L29.8385 70.9767C29.0862 72.1805 28.4592 73.309 28.4592 73.4846C28.4592 73.6852 28.6849 74.0363 28.9608 74.2871C29.7382 74.9893 30.5407 74.5379 31.6693 72.7824L32.6222 71.2777H39.895H47.1426L49.6504 70.425C51.7069 69.7228 62.2147 65.5849 70.5658 62.1491C72.7225 61.2714 73.7508 60.3937 74.152 59.0896C74.8542 56.657 72.9232 54.099 70.3652 54.099C69.9639 54.099 66.9294 54.751 63.594 55.5786L57.5501 57.0332L57.1238 56.1554C56.6222 55.1272 55.7696 54.4501 54.6661 54.1491C54.1896 54.0237 51.9577 54.1491 48.7727 54.5002Z" fill="white"/>
<path d="M27.4561 54.5993C26.8793 55.1761 26.8542 55.4269 27.2053 56.1291C27.5062 56.6808 28.6849 56.7812 29.1614 56.3047C29.6379 55.8282 29.5125 54.9254 28.9106 54.499C28.1834 53.9975 28.058 53.9975 27.4561 54.5993Z" fill="white"/>
<path d="M21.9389 56.3304C20.6599 57.0326 18.8543 58.6878 17.6254 60.3179C17.0235 61.1204 15.0925 64.3304 13.3119 67.4652C10.8292 71.9041 10.127 73.3085 10.2524 73.785C10.4279 74.437 11.1301 74.7881 11.8323 74.5624C12.0831 74.4872 13.7383 71.8289 15.5941 68.5687C19.2555 62.0984 20.3339 60.5937 22.2649 59.2144C24.3464 57.7097 24.5972 57.2583 23.6944 56.3555C23.0925 55.7536 23.0424 55.7536 21.9389 56.3304Z" fill="white"/>
</svg>
