<svg width="280" height="124" viewBox="0 0 280 124" fill="none" xmlns="http://www.w3.org/2000/svg">
<g clip-path="url(#clip0_86_117)">
<path fill-rule="evenodd" clip-rule="evenodd" d="M89.7775 63.5177H96.2809V101.996H89.7775V63.5177ZM64.3968 77.41C64.3968 76.4994 63.7711 76.0037 63.0527 76.0037C62.3378 76.0037 61.6959 76.4851 61.6959 77.41V95.9416C61.6959 96.8652 62.3375 97.3479 63.0527 97.3479C63.7714 97.3479 64.3968 96.8436 64.3968 95.9416V89.8686H70.8938V95.4665C70.8938 100.007 67.3229 102.374 63.0226 102.374C58.9096 102.374 55.1976 100.083 55.1976 95.4665V77.8813C55.1976 73.2742 58.91 70.977 63.0226 70.977C67.2503 70.977 70.8938 73.3456 70.8938 77.8813V82.894H64.3968V77.41ZM78.9798 78.2444C78.9798 77.3199 79.6195 76.8384 80.3347 76.8384C81.0525 76.8384 81.6811 77.337 81.6811 78.2444V101.999H88.1841V76.5479C88.1841 72.4004 85.4962 70.9716 83.4448 70.9716C81.153 70.9716 79.5428 72.6281 79.0984 73.4693H78.9931V63.5177H72.4901V101.999H78.9795L78.9798 78.2444ZM107.067 95.3879C107.067 96.293 106.439 96.7948 105.721 96.7948C105.008 96.7948 104.366 96.3124 104.366 95.3879V71.3348H97.8664V96.876C97.8664 100.263 100.202 102.374 102.708 102.374C105.248 102.374 106.626 100.533 107.016 99.8592H107.163L107.279 101.999H113.568V71.3348H107.068V95.3879H107.067ZM121.653 101.999H115.153V71.3348H121.591L121.656 73.4737H121.786C122.263 72.5327 123.81 70.9716 126.154 70.9716C128.582 70.9716 130.142 72.8416 130.476 73.9418H130.568C131.053 72.8232 132.755 70.9716 135.217 70.9716C137.705 70.9716 140.089 72.6592 140.089 76.8331V101.999H133.586V77.9409C133.586 77.0141 132.95 76.5317 132.234 76.5317C131.515 76.5317 130.882 77.0294 130.882 77.9409V101.999H124.349V77.952C124.349 77.0249 123.701 76.5428 122.986 76.5428C122.268 76.5428 121.653 77.0424 121.653 77.952V101.999H121.653ZM152.47 70.9716C150.294 70.9694 148.728 72.8124 148.319 73.4845H148.18V63.5177H141.678V101.999H148.107L148.18 99.8592H148.319C148.644 100.685 150.039 102.362 152.424 102.365C155.176 102.369 157.414 99.9968 157.414 96.4097V76.5479C157.414 73.0985 155.081 70.9716 152.47 70.9716ZM150.89 95.3983C150.89 96.307 150.261 96.8059 149.54 96.8059C148.826 96.8059 148.183 96.3213 148.183 95.3983V77.9609C148.183 77.036 148.826 76.5546 149.54 76.5546C150.261 76.5546 150.89 77.0554 150.89 77.9609V95.3983ZM165.503 95.9565C165.503 96.881 166.147 97.3638 166.863 97.3638C167.578 97.3638 168.206 96.8652 168.206 95.9565V89.8686H174.705V95.4614C174.705 100.086 170.9 102.374 166.836 102.374C162.72 102.374 158.994 100.086 158.994 95.4614V77.892C158.994 73.2828 162.714 70.977 166.83 70.977C171.054 70.977 174.705 73.3348 174.705 77.892V87.8001H165.502V95.9565H165.503ZM168.206 83.1239V77.4154C168.206 76.5083 167.579 76.0094 166.863 76.0094C166.148 76.0094 165.503 76.4883 165.503 77.4154L165.509 83.1239H168.206ZM184.167 76.5479C183.454 76.5479 182.806 77.0294 182.806 77.9571V101.999H176.3V71.3348H182.676L182.801 73.4693H182.945C183.559 72.617 185.128 70.9716 187.3 70.9716C189.818 70.9716 192.016 73.0138 192.016 76.2574V87.7678H185.509V77.7534C185.509 77.0199 184.808 76.5479 184.152 76.5479H184.167ZM217.375 95.9565C217.375 96.881 218.022 97.3638 218.736 97.3638C219.453 97.3638 220.08 96.8652 220.08 95.9565V89.8686H226.58V95.4614C226.58 100.086 222.767 102.374 218.709 102.374C214.592 102.374 210.872 100.086 210.872 95.4614V77.892C210.872 73.2828 214.587 70.977 218.703 70.977C222.926 70.977 226.58 73.3348 226.58 77.892V87.8001H217.375V95.9565ZM220.08 83.1239V77.4154C220.08 76.5083 219.453 76.0094 218.736 76.0094C218.022 76.0094 217.375 76.4883 217.375 77.4154L217.381 83.1239H220.08ZM236.021 76.5479C235.299 76.5479 234.657 77.0294 234.657 77.9571V101.999H228.149V71.3348H234.522L234.652 73.4693H234.793C235.407 72.617 236.979 70.9716 239.153 70.9716C241.672 70.9716 243.87 73.0138 243.87 76.2574V87.7678H237.359V77.7534C237.359 77.0199 236.657 76.5479 236.003 76.5479H236.021ZM202.795 93.4773C202.795 94.3825 202.171 94.8813 201.451 94.8813C200.737 94.8813 200.094 94.4021 200.094 93.4773V77.9659C200.094 77.0446 200.737 76.5654 201.451 76.5654C202.171 76.5654 202.795 77.0598 202.795 77.9659V93.4773ZM202.795 104.245C202.795 105.153 202.168 105.649 201.451 105.649C200.737 105.649 200.094 105.167 200.094 104.245V101.758H193.601V103.448C193.601 108.242 196.906 110.374 201.429 110.374C205.916 110.374 209.3 108.242 209.3 103.448V71.3348H202.892L202.795 73.4845H202.638C202.298 72.782 200.776 70.9716 198.351 70.9716C196.006 70.9716 193.601 72.7734 193.601 76.1036V94.4173C193.601 97.9245 195.853 99.9721 198.389 99.9721C200.8 99.9721 202.204 98.36 202.603 97.7215H202.795L202.795 104.245ZM43.5118 95.4614C43.5118 96.3882 44.1563 96.8706 44.8721 96.8706C45.5892 96.8706 46.2134 96.3685 46.2134 95.4614V91.8252C46.2134 88.9235 45.5921 87.8696 43.4376 85.8448C41.6013 84.1169 40.6745 83.2279 39.488 82.1093C37.9701 80.6739 36.2191 78.6748 36.2191 74.9393V70.33C36.2172 65.2707 40.4275 63.3877 44.8633 63.3877C49.2851 63.3877 53.4608 65.3119 53.4608 70.2942V76.2368H46.2131V70.4708C46.2131 69.5625 45.587 69.0636 44.869 69.0636C44.1535 69.0636 43.5118 69.5469 43.5118 70.4708V73.2393C43.5118 75.6374 44.2626 76.6919 46.2505 78.5901C47.0501 79.3554 48.8598 81.116 50.2528 82.4744C52.7434 84.9143 53.6045 87.1151 53.6045 90.1417V95.293C53.6045 100.649 49.2934 102.53 44.8633 102.53C40.3761 102.53 36.1927 100.649 36.1927 95.548V88.169H43.5118V95.4614Z" fill="#043266"/>
</g>
<defs>
<clipPath id="clip0_86_117">
<rect width="208" height="53" fill="white" transform="translate(36 56)"/>
</clipPath>
</defs>
</svg>
