<svg width="260" height="124" viewBox="0 0 260 124" fill="none" xmlns="http://www.w3.org/2000/svg">
<path d="M96.3599 70.3753H107.364V73.9859H102.13V99.3559H96.3601V70.3751M113.888 88.4763L114.877 73.9859H115.208L116.197 88.4763H113.888ZM107.499 99.3559H113.148L113.682 91.6593H116.403L116.94 99.3559H122.586L119.577 70.3751H110.508L107.499 99.3559ZM130.848 89.2125V94.6762C130.848 95.4127 131.416 95.6264 131.748 95.6264C132.292 95.6264 132.67 95.1751 132.67 94.6762V87.93C132.67 87.0274 132.504 86.0295 130.352 86.0295H128.01V82.8465H130.446C132.079 82.8465 132.67 82.4664 132.67 80.6847V74.9361C132.67 74.4372 132.292 73.9859 131.747 73.9859C131.416 73.9859 130.849 74.1761 130.849 74.9361V79.6632H125.077V75.5538C125.077 73.5345 125.314 70.3751 129.359 70.3751H134.137C138.182 70.3751 138.442 73.5345 138.442 75.5538V80.186C138.442 83.3452 136.242 84.2005 134.515 84.1293V84.4142C138.395 84.3192 138.442 87.3123 138.442 88.3337V94.1775C138.442 96.2203 138.182 99.3559 134.137 99.3559H129.359C125.314 99.3559 125.077 96.2203 125.077 94.1772V89.2128H130.849M142.227 70.3753H155.592V99.3559H149.82V73.9859H147.998V99.3559H142.227V70.3753ZM165.148 86.3147V73.9861H165.905C166.52 73.9861 166.97 74.5083 166.97 75.435V84.8658C166.97 85.792 166.52 86.3147 165.905 86.3147H165.148H165.148ZM159.376 99.3559H165.148V89.4977H168.46C172.481 89.4977 172.741 86.3621 172.741 84.3192V75.5538C172.741 73.5345 172.481 70.3751 168.46 70.3751H159.376V99.3559ZM184.119 94.6762C184.119 95.1753 183.741 95.6264 183.197 95.6264C182.866 95.6264 182.298 95.4127 182.298 94.6762V74.9361C182.298 74.1758 182.866 73.9859 183.197 73.9859C183.741 73.9859 184.12 74.4372 184.12 74.9361V94.6762H184.119ZM176.526 94.1775C176.526 96.2203 176.786 99.3559 180.808 99.3559H185.61C189.631 99.3559 189.891 96.2203 189.891 94.1772V75.5538C189.891 73.5345 189.631 70.3751 185.61 70.3751H180.808C176.786 70.3751 176.526 73.5345 176.526 75.5538V94.1772M208.673 70.3753H216.195V99.3559H210.424V81.1836H210.211L207.23 99.3559H202.618L199.661 81.1836H199.448V99.3559H193.676V70.3751H201.175L204.936 90.7567L208.673 70.3753ZM88.8804 30.7524C87.1133 22.9846 82.6852 16.6659 82.0749 15.6445C81.1095 17.0934 77.5782 22.6759 75.7825 28.8522C73.8217 35.7647 73.5329 41.8934 74.2097 47.9031C74.8814 53.9368 77.4196 60.137 77.4196 60.137C78.7679 63.3676 80.7881 66.8593 82.1032 68.5698C84.0311 66.0519 88.4616 58.5452 89.8429 48.7586C90.6118 43.295 90.6449 38.5202 88.8804 30.7524ZM82.0749 66.622C81.2066 64.9829 79.8584 61.871 79.7307 57.0251C79.6975 52.3691 81.5592 48.3547 82.1032 47.5232C82.588 48.3547 84.192 51.8466 84.3834 56.6212C84.5134 61.2771 82.9712 64.9591 82.0749 66.622ZM88.367 43.9362C88.3007 46.9057 87.9481 50.0411 87.4987 51.9181C87.6596 48.6875 87.2742 44.15 86.5362 40.5868C85.7979 37.0475 83.7091 31.1087 82.0417 28.3771C80.5018 30.99 78.6047 36.1208 77.6113 40.563C76.6128 45.0053 76.5845 50.3975 76.5845 52.0128C76.3194 50.6588 75.6571 45.7891 75.844 40.9194C76.0002 36.9049 76.937 32.7479 77.4502 30.8474C79.409 24.5049 81.6252 20.4428 82.0417 19.8013C82.458 20.4428 85.2494 25.4552 86.697 30.705C88.1373 35.9547 88.4287 40.9908 88.367 43.9362Z" fill="#0079C2"/>
<path d="M85.0719 70.3749H71.6384V79.4252C71.6501 79.4252 71.6595 79.4017 71.6715 79.4017C74.8363 76.2184 79.9695 76.2184 83.1369 79.4017C86.3019 82.5609 86.3019 87.7158 83.1369 90.8988C83.1226 90.9226 83.1086 90.9226 83.0943 90.9464C83.0777 90.9464 83.0611 90.97 83.0469 90.9938C79.889 94.1297 75.7637 95.6974 71.6384 95.6974C67.4939 95.6974 63.3495 94.1294 60.1893 90.9462C54.6163 85.364 53.9564 76.6936 58.2045 70.3746C58.7878 69.5054 59.4524 68.6942 60.1893 67.9519C63.3495 64.7687 67.4939 63.2007 71.6384 63.2007V41.4414C55.7137 41.4414 42.8053 54.3879 42.8053 70.3749C42.8053 86.3616 55.7137 99.3317 71.6384 99.3317C79.941 99.3317 87.4207 95.7923 92.6817 90.1623V70.3749H85.0719Z" fill="#0079C2"/>
</svg>
