<svg width="280" height="124" viewBox="0 0 280 124" fill="none" xmlns="http://www.w3.org/2000/svg">
<path d="M71.8658 63.3301H71.0475V100.845H71.8658V63.3301Z" fill="#0F4C8F"/>
<path d="M203.699 82.094L204.161 78.8547H198.684C196.903 78.8547 195.609 77.538 195.807 75.9184L196.837 67.8861C196.929 67.1487 197.312 66.4508 197.919 65.9109C198.605 65.3052 199.529 64.9497 200.453 64.9497H214.812L217.135 64.9629C218.059 64.9629 218.903 65.3184 219.431 65.9241C219.893 66.464 220.091 67.1619 219.999 67.8993L219.009 75.9447C218.785 77.5643 217.148 78.8811 215.366 78.8811H209.902L209.467 82.1203L203.699 82.094ZM210.444 74.3119H213.044C213.255 74.3119 213.453 74.1407 213.492 73.93L214.113 69.4662H211.09L210.444 74.3119ZM201.72 74.2987H204.703L205.059 71.8759L205.336 69.453H202.327L201.72 74.2987Z" fill="#035597"/>
<path d="M81.9356 82.028L83.5721 69.4003H77.8046L80.695 64.8574H94.5132L93.9457 69.4003H89.2604L87.6239 82.028H81.9356Z" fill="#035597"/>
<path d="M224.645 82.028L226.282 69.4003H221.24L221.807 64.8574H238.846L236.074 69.4003H231.97L230.32 82.028H224.645Z" fill="#035597"/>
<path d="M121.595 82.028L121.292 79.039L115.736 79.1048L114.759 82.028H108.939L114.917 65.7133C115.089 65.2261 115.656 64.8706 116.224 64.8706H124.565C125.159 64.8706 125.594 65.213 125.634 65.7002L127.455 82.0412H121.595V82.028ZM117.359 74.7463H120.817L120.289 70.006H119.141L117.359 74.7463Z" fill="#035597"/>
<path d="M137.934 82.028L138.739 75.9182H135.466L134.674 82.028H128.933L131.137 64.8574H136.878L136.021 71.3227H139.294L140.138 64.8574H146.196L143.992 82.028H137.934Z" fill="#035597"/>
<path d="M171.246 82.028L172.038 75.9182H168.778L167.986 82.028H162.245L164.436 64.8574H170.177L169.332 71.3227H172.592L173.437 64.8574H179.508L177.304 82.028H171.246Z" fill="#035597"/>
<path d="M150.037 82.094C148.836 82.094 147.74 81.6331 147.041 80.8167C146.42 80.0925 146.143 79.1707 146.275 78.2227L147.503 68.7946C147.621 67.8334 148.123 66.9117 148.915 66.2138C149.825 65.4106 151.04 64.9365 152.254 64.9365H158.457C160.41 64.9365 162.588 65.7924 162.298 68.1889L161.928 71.1648H156.226L156.464 69.4794H156.094C155.791 69.4794 153.508 69.4662 153.508 69.4662H153.138L153.099 69.8349C153.085 70.0061 152.769 72.2577 152.505 74.0617C152.267 75.734 152.122 76.7742 152.109 76.8532L152.069 77.2088H155.329L155.58 75.5365H161.308L160.978 78.249C160.687 80.3822 158.563 82.1335 156.24 82.1335H150.037V82.094Z" fill="#035597"/>
<path d="M179.244 82.0939L181.435 64.9233H195.491L194.936 69.4267H186.622L186.331 71.573L194.633 71.5335L194.131 75.418L185.83 75.4575L185.526 77.6038H193.854L193.287 82.0939H179.244Z" fill="#035597"/>
<path d="M94.2889 82.028L94.6981 79.1443L96.2554 64.8706L107.724 64.8838C108.648 64.8838 109.48 65.2393 110.008 65.845C110.47 66.3849 110.668 67.0828 110.575 67.8202L109.585 75.8656C109.361 77.4852 107.724 78.802 105.943 78.802H100.479L100.043 82.0412H94.2889V82.028ZM101.561 70.2562L101.033 74.246H103.567C103.818 74.246 104.042 74.0485 104.082 73.7983L104.702 69.4003H101.68L101.561 70.2562Z" fill="#035597"/>
<path d="M237.566 82.0149L239.347 68.044L239.77 64.8574H245.524L245.036 68.4127H250.513C252.294 68.4127 253.588 69.7294 253.39 71.3491L252.4 79.0653C252.308 79.8027 251.925 80.5006 251.318 81.0405C250.631 81.6462 249.708 82.0017 248.784 82.0017H237.566V82.0149ZM243.874 77.4984H246.461C246.857 77.4984 246.857 77.4984 247.424 73.3374L247.477 72.9687H244.481L243.874 77.4984Z" fill="#035597"/>
<path d="M41.8404 92.4703C36.3897 89.9552 32.6943 85.4914 31.612 80.7247C31.0709 78.0385 32.0344 76.2609 32.6547 75.2733C33.3278 74.2067 34.1592 74.1409 34.1592 74.1409C34.1592 74.1409 33.3146 73.7327 32.1795 73.5747C30.7542 73.364 28.8933 73.522 27.7319 75.3128C26.8608 77.3538 26.3593 79.6055 26.3461 81.9625C26.3725 86.4921 28.0882 91.7329 33.3146 95.907C34.7795 96.9868 36.4029 97.8427 38.1582 98.422C38.3958 98.501 38.6465 98.5669 38.8841 98.6327C39.6496 98.8434 40.4018 99.0014 41.1277 99.1067C41.1805 99.1067 41.2333 99.1199 41.2861 99.1331C41.5105 99.1594 41.7348 99.1858 41.9592 99.2121C42.2891 99.2384 42.6191 99.2779 42.949 99.2779C43.1206 99.2779 43.279 99.2911 43.4506 99.2911C43.5034 99.2911 43.5693 99.2911 43.6221 99.2911C43.9389 99.2911 44.2556 99.2779 44.5724 99.2648C44.5856 99.2648 44.5856 99.2648 44.5856 99.2648C44.9023 99.2516 45.2191 99.2253 45.5358 99.1858C45.5754 99.1858 45.6018 99.1726 45.6414 99.1726C45.9054 99.1331 46.1693 99.0936 46.4201 99.0541C46.5785 99.0277 46.7368 99.0014 46.882 98.9751C46.9084 98.9751 46.9348 98.9619 46.9612 98.9619C49.8516 98.3694 52.2668 97.0526 54.1013 95.7095C55.1703 94.8799 56.147 93.9319 56.9916 92.8785C52.7551 94.8799 47.1064 94.9063 41.8404 92.4703Z" fill="#0F4C8F"/>
<path d="M32.5622 72.3632C35.5317 68.6104 40.0982 66.1481 45.2586 66.1481C49.0859 66.1481 52.5966 67.478 55.3682 69.677C52.2798 66.8064 48.1357 65.0288 43.5692 65.0288C37.5378 65.0288 32.2454 68.1232 29.1571 72.8109C30.0282 72.4159 31.282 72.1393 32.5622 72.3632Z" fill="#0F4C8F"/>
<path d="M42.6851 91.1799C44.8363 92.4045 47.1988 93.0892 49.548 93.2999C50.5246 93.0629 51.4749 92.7074 52.3064 92.2333C55.619 90.166 65.4119 76.6165 65.4119 76.6165C65.4119 76.6165 60.0799 75.5236 57.7703 77.209C55.4475 78.8945 53.7185 81.5807 51.1449 84.4644C48.5714 87.3613 47.4495 89.1784 45.1795 89.7446C43.4902 90.1792 41.8932 90.1002 40.4678 89.7841C41.1541 90.2582 41.88 90.719 42.6851 91.1799Z" fill="#0F4C8F"/>
<path d="M58.5225 91.7857C60.5682 90.2977 65.359 83.7797 65.359 83.7797C65.359 83.7797 61.6768 81.8573 58.3509 83.7797C55.0118 85.7154 55.1174 86.2026 51.7915 88.9283C48.4789 91.654 46.0109 91.9568 44.1764 91.8252C44.0708 91.8252 43.9784 91.7988 43.8728 91.7988C48.6636 93.9978 54.8799 94.3665 58.5225 91.7857Z" fill="#DC0D15"/>
<path d="M65.5305 65.0814C65.5305 65.0814 60.1062 63.6066 55.8829 67.2277C52.8605 69.848 46.3276 87.3742 41.1936 88.3618C40.2037 88.5593 39.3987 88.5724 38.7388 88.4934C38.752 88.5066 38.752 88.5066 38.7652 88.5198C39.623 88.5988 40.6261 88.5724 41.7875 88.3486C46.9215 87.361 53.7052 71.178 56.8463 68.6893C59.9874 66.2138 63.7488 66.8327 63.7488 66.8327L60.8189 72.4816L65.5305 65.0814Z" fill="#0F4C8F"/>
<path d="M91.3194 95.117L91.1478 96.4733C90.9631 97.9613 89.6037 99.1858 88.0991 99.1858H83.2423C81.7509 99.1858 80.6819 97.9613 80.8667 96.4733L81.6057 90.4425C81.7905 88.9414 83.1499 87.7432 84.6413 87.7432H89.4981C90.9895 87.7432 92.0585 88.9414 91.8737 90.4425L91.7021 91.7856H89.2737L89.3925 90.8639C89.4453 90.4557 89.1681 90.1397 88.759 90.1397H84.7864C84.3905 90.1397 84.021 90.4557 83.9814 90.8639L83.3479 96.0519C83.2951 96.447 83.5854 96.7762 83.9814 96.7762H87.9539C88.3631 96.7762 88.7194 96.447 88.759 96.0519L88.8778 95.1039H91.3194V95.117Z" fill="#005597"/>
<path d="M94.7773 99.2117L100.664 91.693H100.703L99.8321 99.2117H102.129L103.475 87.7559H101.073L95.1996 95.2614H95.1468L96.0311 87.7559H93.7214L92.3752 99.2117H94.7773Z" fill="#005597"/>
<path d="M111.565 96.5128C111.552 96.6708 111.42 96.8025 111.262 96.8025H106.524L106.774 94.6562H111.512C111.671 94.6562 111.763 94.7747 111.75 94.9327L111.565 96.5128ZM112.357 92.2333H107.065L107.302 90.1528H113.888L114.165 87.7432H107.58H105.27L104.993 90.1528L103.937 99.2122H111.539C112.661 99.2122 113.664 98.2773 113.796 97.1054L114.112 94.3533C114.258 93.1814 113.479 92.2333 112.357 92.2333Z" fill="#005597"/>
<path d="M117.042 99.2117L122.915 91.693H122.968L122.084 99.2117H124.393L125.726 87.7559H123.324L117.451 95.2614H117.398L118.283 87.7559H115.973L114.64 99.2117H117.042Z" fill="#005597"/>
<path d="M134.978 90.4552C134.991 90.2972 134.899 90.1655 134.741 90.1655H129.752L129.369 93.2468H134.358C134.516 93.2468 134.648 93.1283 134.675 92.9702L134.978 90.4552ZM137.024 93.5496C136.879 94.7084 135.823 95.6564 134.648 95.6564H129.065L128.63 99.2117H126.202L127.614 87.7559H135.625C136.813 87.7559 137.631 88.6908 137.486 89.8627L137.024 93.5496Z" fill="#005597"/>
<path d="M145.985 96.5123C145.959 96.6704 145.84 96.802 145.668 96.802H140.679L141.062 93.7208H146.051C146.209 93.7208 146.315 93.8393 146.302 93.9973L145.985 96.5123ZM148.796 93.4179C148.941 92.2592 148.123 91.3111 146.935 91.3111H141.353L141.788 87.7559H139.36L137.948 99.2117H145.959C147.146 99.2117 148.189 98.2768 148.334 97.1049L148.796 93.4179Z" fill="#005597"/>
</svg>
