<svg width="280" height="124" viewBox="0 0 280 124" fill="none" xmlns="http://www.w3.org/2000/svg">
<g clip-path="url(#clip0_86_118)">
<path fill-rule="evenodd" clip-rule="evenodd" d="M33.0649 17V24.4736H25.0792V31.9472H17.0935V39.6342H9V65.1505C9 65.1505 23.1367 77.9614 25.1871 79.8832V107.001H59.9351V79.991C61.9854 78.1759 76.1221 65.1516 76.1221 65.1516V39.6331H68.0286V32.0528H59.9351V24.4736H51.8415V17H33.0649Z" fill="white"/>
<path fill-rule="evenodd" clip-rule="evenodd" d="M37.8127 101.021H31.0145V67.3911H37.8127V101.021Z" fill="#FFD100"/>
<path fill-rule="evenodd" clip-rule="evenodd" d="M45.9062 101.021H39.108V60.4521H45.9062V101.021Z" fill="#FFD100"/>
<path fill-rule="evenodd" clip-rule="evenodd" d="M47.2016 101.021H53.9998V67.3911H47.2016V101.021Z" fill="#FFD100"/>
<path fill-rule="evenodd" clip-rule="evenodd" d="M21.6256 68.7793L14.8275 62.8006V45.5049H21.6256V68.7793Z" fill="#211F20"/>
<path fill-rule="evenodd" clip-rule="evenodd" d="M29.7192 76.2531L22.921 69.6331V37.9248H29.7192V76.2531Z" fill="#211F20"/>
<path fill-rule="evenodd" clip-rule="evenodd" d="M37.8127 66.4308H31.0145V30.4521H37.8127V66.4308Z" fill="#211F20"/>
<path fill-rule="evenodd" clip-rule="evenodd" d="M45.9062 59.0641H39.108V22.8721H45.9062V59.0641Z" fill="#211F20"/>
<path fill-rule="evenodd" clip-rule="evenodd" d="M63.2808 68.7793L70.0789 62.8006V45.5049H63.2808V68.7793Z" fill="#211F20"/>
<path fill-rule="evenodd" clip-rule="evenodd" d="M55.1873 76.2531L62.0933 69.6331V37.9248H55.1873V76.2531Z" fill="#211F20"/>
<path fill-rule="evenodd" clip-rule="evenodd" d="M47.2016 66.4308H53.9998V30.4521H47.2016V66.4308Z" fill="#211F20"/>
<path fill-rule="evenodd" clip-rule="evenodd" d="M118.64 99.8464C117.777 100.7 116.158 101.128 113.784 101.128H106.122C103.856 101.128 102.237 100.808 101.374 99.9531C100.404 99.0994 99.9713 97.8179 99.9713 96.2163V88.8494C99.9713 87.141 100.403 85.9673 101.374 85.1126C102.237 84.259 103.856 83.8311 106.122 83.8311H113.784C116.158 83.8311 117.777 84.2579 118.64 85.1126C119.503 85.9673 119.935 87.2477 119.935 88.8494V96.2163C119.935 97.8179 119.504 98.9917 118.64 99.8464ZM114.647 90.5577C114.647 89.5974 114.432 88.9561 114.108 88.4226C113.677 87.9958 112.813 87.7824 111.41 87.7824H108.497C107.202 87.7824 106.339 88.1025 105.908 88.5293C105.476 88.9561 105.261 89.7041 105.261 90.5577V94.5079C105.261 95.3616 105.476 96.0029 105.908 96.5364C106.339 96.9632 107.203 97.2833 108.497 97.2833H111.41C112.814 97.2833 113.677 96.9632 114 96.5364C114.432 96.1096 114.647 95.4683 114.647 94.5079V90.5577Z" fill="#211F20"/>
<path fill-rule="evenodd" clip-rule="evenodd" d="M141.626 99.8464C140.764 100.7 139.145 101.128 136.771 101.128H129.109C126.843 101.128 125.224 100.808 124.361 99.9531C123.39 99.0994 122.958 97.8179 122.958 96.2163V88.8494C122.958 87.141 123.389 85.9673 124.361 85.1126C125.224 84.259 126.843 83.8311 129.109 83.8311H136.771C139.145 83.8311 140.764 84.2579 141.626 85.1126C142.489 85.9673 142.814 87.2477 142.814 88.8494V90.5577H137.634C137.634 89.5974 137.418 88.9561 136.986 88.4226C136.663 87.9958 135.799 87.7824 134.397 87.7824H131.484C130.188 87.7824 129.325 88.1025 128.894 88.5293C128.463 88.9561 128.247 89.7041 128.247 90.5577V94.5079C128.247 95.3616 128.463 96.0029 128.894 96.5364C129.325 96.9632 130.189 97.2833 131.484 97.2833H134.397C135.8 97.2833 136.663 96.9632 136.986 96.5364C137.418 96.1096 137.634 95.4683 137.634 94.5079H142.814V96.2163C142.814 97.8179 142.49 98.9917 141.626 99.8464Z" fill="#211F20"/>
<path fill-rule="evenodd" clip-rule="evenodd" d="M151.122 101.128H145.943V96.2177V88.8509V83.8325H151.122V90.4525H160.511V83.8325H165.798V88.8509V96.2177V101.128H160.511V94.4027H151.122V101.128Z" fill="#211F20"/>
<path fill-rule="evenodd" clip-rule="evenodd" d="M175.618 94.4023H174.107C174.107 95.3627 174.323 96.004 174.754 96.5375C175.186 96.9643 176.05 97.2844 177.344 97.2844H188.783V101.128H175.078C172.704 101.128 171.085 100.808 170.222 99.9531C169.359 99.0984 168.927 97.8179 168.927 96.2163V88.8494C168.927 87.141 169.358 85.9673 170.222 85.1126C171.086 84.2579 172.704 83.8311 175.078 83.8311H188.783V87.7813H177.344C176.049 87.7813 175.186 88.1014 174.754 88.5282C174.323 88.955 174.107 89.703 174.107 90.4499H188.783V94.4001H175.617L175.618 94.4023Z" fill="#211F20"/>
<path fill-rule="evenodd" clip-rule="evenodd" d="M229.036 87.7827H221.913V83.8325H227.957H235.619H241.77V87.7827H234.323V101.128H229.036V87.7827Z" fill="#211F20"/>
<path fill-rule="evenodd" clip-rule="evenodd" d="M217.273 86.9291H209.18V83.8325H204V86.9291H195.69C195.69 86.9291 191.05 87.1425 191.05 92.3742C191.05 97.606 195.798 97.7127 195.798 97.7127H204V101.129H209.18V97.7127H217.166C217.166 97.7127 222.021 97.7127 222.021 92.3742C222.021 87.0358 217.273 86.9291 217.273 86.9291ZM214.468 94.296H209.18V90.6659H214.468C214.468 90.6659 216.303 90.3458 216.303 92.5876C216.303 94.4027 214.468 94.296 214.468 94.296ZM196.878 92.5876C196.878 90.3458 198.713 90.6659 198.713 90.6659H204.001V94.296H198.713C198.713 94.296 196.878 94.4027 196.878 92.5876Z" fill="#211F20"/>
<path fill-rule="evenodd" clip-rule="evenodd" d="M95.6549 85.1141C94.7921 84.2604 93.1731 83.8325 90.9071 83.8325H77.0939V101.128H82.2743V95.2563H90.9071C93.1731 95.2563 94.7921 94.8295 95.6549 93.9748C96.5177 93.1201 96.9503 91.8396 96.9503 90.238V88.8498C96.9503 87.2481 96.5188 85.9677 95.6549 85.113V85.1141ZM90.0431 91.3061H82.2732V87.7827H90.0431C90.906 87.7827 91.7699 88.6364 91.7699 89.5978C91.7699 90.4514 90.9071 91.3061 90.0431 91.3061Z" fill="#211F20"/>
<path fill-rule="evenodd" clip-rule="evenodd" d="M264 96.2177V94.8295C264 93.2279 263.569 91.9474 262.705 91.0927C261.841 90.238 260.223 89.8112 257.849 89.8112H249.324V83.8325H244.036V101.128H257.849C260.223 101.128 261.842 100.701 262.705 99.8467C263.567 98.992 264 97.8183 264 96.2167V96.2177ZM258.82 95.4708C258.82 96.4311 257.957 97.2859 256.985 97.2859H249.323V93.7625H256.985C257.956 93.7625 258.82 94.5094 258.82 95.4708Z" fill="#211F20"/>
</g>
<defs>
<clipPath id="clip0_86_118">
<rect width="255" height="90" fill="white" transform="translate(9 17)"/>
</clipPath>
</defs>
</svg>
